<?xml version="1.0" encoding="UTF-8"?>
<svg xmlns="http://www.w3.org/2000/svg" xmlns:xlink="http://www.w3.org/1999/xlink" viewBox="0 0 24 24" width="24px" height="24px">
<g id="surface119384340">
<path style=" stroke:none;fill-rule:nonzero;fill:rgb(15.686275%,17.254902%,32.156864%);fill-opacity:1;" d="M 6 2 C 4.894531 2 4 2.894531 4 4 L 4 20 C 4 21.105469 4.894531 22 6 22 L 16.425781 22 C 16.144531 21.335938 16 20.640625 16 20 L 12 20 C 11.449219 20 11 19.550781 11 19 C 11 18.449219 11.449219 18 12 18 L 16.429688 18 C 16.164062 17.445312 16 16.785156 16 16 C 15.449219 16 15 15.550781 15 15 C 15 14.449219 15.449219 14 16 14 C 16.089844 14 16.171875 14.027344 16.253906 14.050781 C 16.503906 13.410156 17 12.582031 18 11.976562 C 18 10.886719 18.886719 10 19.976562 10 L 20 10 L 20 4 C 20 2.894531 19.105469 2 18 2 Z M 6.5 4 L 17.5 4 C 17.777344 4 18 4.222656 18 4.5 L 18 7.5 C 18 7.777344 17.777344 8 17.5 8 L 6.5 8 C 6.222656 8 6 7.777344 6 7.5 L 6 4.5 C 6 4.222656 6.222656 4 6.5 4 Z M 8 10 C 8.550781 10 9 10.449219 9 11 C 9 11.550781 8.550781 12 8 12 C 7.449219 12 7 11.550781 7 11 C 7 10.449219 7.449219 10 8 10 Z M 12 10 C 12.550781 10 13 10.449219 13 11 C 13 11.550781 12.550781 12 12 12 C 11.449219 12 11 11.550781 11 11 C 11 10.449219 11.449219 10 12 10 Z M 16 10 C 16.550781 10 17 10.449219 17 11 C 17 11.550781 16.550781 12 16 12 C 15.449219 12 15 11.550781 15 11 C 15 10.449219 15.449219 10 16 10 Z M 21 12 C 20.449219 12 20 12.449219 20 13 L 20 13.199219 C 19 13.5 18 14.398438 18 16 C 18 17.898438 19.597656 18.5 20.597656 18.902344 C 21.800781 19.402344 22 19.5 22 20 C 22 20.5 21.800781 21 21 21 C 20.199219 21 20 20.5 20 20 L 18 20 C 18 21 18.601562 22.402344 20 22.800781 L 20 23 C 20 23.550781 20.449219 24 21 24 C 21.550781 24 22 23.550781 22 23 L 22 22.800781 C 23.398438 22.402344 24 21 24 20 C 24 18.101562 22.402344 17.5 21.402344 17.097656 C 20.199219 16.601562 20 16.5 20 16 C 20 15.199219 20.5 15 21 15 C 21.800781 15 22 15.5 22 16 L 24 16 C 24 15 23.398438 13.597656 22 13.199219 L 22 13 C 22 12.449219 21.550781 12 21 12 Z M 8 14 C 8.550781 14 9 14.449219 9 15 C 9 15.550781 8.550781 16 8 16 C 7.449219 16 7 15.550781 7 15 C 7 14.449219 7.449219 14 8 14 Z M 12 14 C 12.550781 14 13 14.449219 13 15 C 13 15.550781 12.550781 16 12 16 C 11.449219 16 11 15.550781 11 15 C 11 14.449219 11.449219 14 12 14 Z M 8 18 C 8.550781 18 9 18.449219 9 19 C 9 19.550781 8.550781 20 8 20 C 7.449219 20 7 19.550781 7 19 C 7 18.449219 7.449219 18 8 18 Z M 8 18 "/>
</g>
</svg>
