<?xml version="1.0" encoding="UTF-8"?>
<svg xmlns="http://www.w3.org/2000/svg" xmlns:xlink="http://www.w3.org/1999/xlink" viewBox="0 0 24 24" width="24px" height="24px">
<g id="surface119132168">
<path style=" stroke:none;fill-rule:nonzero;fill:rgb(15.686275%,17.254902%,32.156864%);fill-opacity:1;" d="M 12.152344 2 C 9.261719 1.957031 6.648438 3.15625 4.796875 5.089844 L 2.855469 3.144531 C 2.660156 2.953125 2.339844 2.953125 2.148438 3.144531 C 2.046875 3.242188 2 3.371094 2 3.5 L 2 8 C 2 8.550781 2.449219 9 3 9 L 7.5 9 C 7.628906 9 7.753906 8.949219 7.855469 8.855469 C 8.046875 8.660156 8.046875 8.339844 7.855469 8.148438 L 6.21875 6.507812 C 8.027344 4.601562 10.75 3.570312 13.691406 4.175781 C 16.765625 4.8125 19.230469 7.300781 19.839844 10.378906 C 20.851562 15.5 16.941406 20 12 20 C 7.882812 20 4.480469 16.871094 4.046875 12.863281 C 3.992188 12.367188 3.5625 12 3.0625 12 C 2.460938 12 1.996094 12.523438 2.0625 13.121094 C 2.621094 18.109375 6.867188 22 12 22 C 18.136719 22 23 16.445312 21.824219 10.097656 C 21.078125 6.074219 17.816406 2.859375 13.789062 2.15625 C 13.234375 2.058594 12.6875 2.011719 12.152344 2.003906 Z M 12.628906 8.007812 C 12.5625 7.996094 12.492188 8 12.417969 8.027344 L 9.640625 9.027344 C 9.253906 9.175781 9 9.542969 9 9.957031 L 9 10 C 9 10.515625 9.507812 10.875 9.996094 10.707031 L 11 10.355469 L 11 15 C 11 15.550781 11.449219 16 12 16 C 12.550781 16 13 15.550781 13 15 L 13 8.433594 C 13 8.210938 12.832031 8.035156 12.628906 8.003906 Z M 12.628906 8.007812 "/>
</g>
</svg>
