<?xml version="1.0" encoding="UTF-8"?>
<svg xmlns="http://www.w3.org/2000/svg" xmlns:xlink="http://www.w3.org/1999/xlink" viewBox="0 0 24 24" width="24px" height="24px">
<g id="surface119385493">
<path style=" stroke:none;fill-rule:nonzero;fill:rgb(15.686275%,17.254902%,32.156864%);fill-opacity:1;" d="M 2.988281 1.992188 C 2.582031 1.992188 2.21875 2.238281 2.0625 2.613281 C 1.910156 2.992188 2 3.421875 2.292969 3.707031 L 2.886719 4.300781 C 2.3125 4.652344 1.929688 5.277344 1.929688 6 C 1.929688 6.550781 2.378906 7 2.929688 7 L 5.585938 7 L 8.585938 10 L 2.929688 10 C 2.378906 10 1.929688 10.449219 1.929688 11 L 1.929688 18 C 1.929688 19.105469 2.824219 20 3.929688 20 L 18.585938 20 L 20.292969 21.707031 C 20.542969 21.96875 20.917969 22.074219 21.265625 21.980469 C 21.617188 21.890625 21.890625 21.617188 21.980469 21.265625 C 22.074219 20.917969 21.96875 20.542969 21.707031 20.292969 L 3.707031 2.292969 C 3.519531 2.097656 3.261719 1.992188 2.992188 1.988281 Z M 8.214844 4 L 9.214844 5 L 10.21875 6 L 11.21875 7 L 21 7 C 21.550781 7 22 6.550781 22 6 C 22 4.894531 21.105469 4 20 4 Z M 14.21875 10 L 15.21875 11 L 20 15.785156 L 22 17.785156 L 22 11 C 22 10.449219 21.550781 10 21 10 Z M 14.21875 10 "/>
</g>
</svg>
