<?xml version="1.0" encoding="utf-8"?>
<!-- Generator: Adobe Illustrator 27.1.1, SVG Export Plug-In . SVG Version: 6.00 Build 0)  -->
<svg version="1.1" id="Layer_1" xmlns="http://www.w3.org/2000/svg" xmlns:xlink="http://www.w3.org/1999/xlink" x="0px" y="0px"
	 viewBox="0 0 300 60" style="enable-background:new 0 0 300 60;" xml:space="preserve">
<style type="text/css">
	.st0{fill:#FFFFFF;}
	.st1{fill:#231F20;}
	.st2{fill:#008BCC;}
</style>
<g>
	<path class="st0" d="M29.1,46.2c9.1,0,16.5-7.4,16.5-16.5s-7.4-16.5-16.5-16.5c-9.1,0-16.5,7.4-16.5,16.5S20,46.2,29.1,46.2z"/>
	<path class="st0" d="M88.3,8.8c-7.1,0-17.8-3.3-17.8-3.3s-2.4,6.1-2.4,14.4S75,50,88.9,55.5c0,0,19.9-12.6,19.9-34.6
		c0-13.1-1.9-15.5-1.9-15.5S95.3,8.8,88.3,8.8z"/>
	<path class="st1" d="M129.3,25.8V2h9c4.3-0.3,8.6,1.5,8.6,6.2c0,2.6-1.8,4.4-4.1,5.3c3,0.7,5.3,2.8,5.3,6.2c0,4.7-5.9,6.5-9.5,6.2
		h-9.1V25.8z M138.5,11.5c2.2,0,3.3-0.8,3.3-2.8c0-1.9-1.2-2.8-3.3-2.8h-4v5.7h4V11.5z M138.5,21.8c2.4,0,4-0.4,4-3.2
		c0-2.8-1.7-3.2-4-3.2h-4v6.4H138.5z M156.2,2v23.8h-5V2H156.2z M171.2,23.7c-1.1,1.5-2.6,2.5-5.1,2.5c-1.7,0-4.8-1.2-5.4-3.6
		c-0.3-1-0.3-2.1-0.3-2.6V9.2h5v10c0,1.8,0.6,3.9,2.9,3.9c1.5,0,2.9-1.4,2.9-3.9v-10h5v13.6c0,1,0.1,1.9,0.1,2.9h-5L171.2,23.7z
		 M184.9,18.9c0,2.2,0.3,4.1,2.9,4.1c1.7,0,2.6-0.7,3-2.2h4.4c-0.4,4.1-3.6,5.4-7.5,5.4c-5.7,0-8-3.2-8-8.7c0-5,2.9-8.9,8-8.9
		c3,0,5.7,1.1,7.1,4c0.4,1,0.7,1.9,0.8,2.9c0.1,1,0.1,2.1,0.1,3.2h-10.9V18.9z M190.7,15.5c0-1.8-0.6-3.5-2.9-3.5
		c-2.2,0-2.8,1.7-2.9,3.5H190.7z M212.6,9.6c0-2.5-1.5-4.6-4.6-4.6c-3.6,0-4.6,5.4-4.6,8.7c0,3.3,1,8.7,4.6,8.7c3,0,4.6-2.1,4.6-4.6
		h5.4c-0.3,5.9-4.6,8.2-10,8.2c-6.9,0-10-5.4-10-12.4c0-6.9,3-12.4,10-12.4c5.5,0,9.8,2.2,10,8.2h-5.4V9.6z M225.2,9.2l0.1,3
		c1.1-2.6,3.2-3.3,5.7-3.2v4.4h-2.2c-0.8,0-1.9,0.6-2.4,1.2c-0.6,1-0.7,1.8-0.7,2.9v8.2h-5V12.5c0-0.7-0.1-2.1-0.1-3.3H225.2z
		 M241.7,26.3c-5.4,0-8.7-3.6-8.7-8.9s3.2-8.9,8.7-8.9c5.4,0,8.7,3.6,8.7,8.9S247.1,26.3,241.7,26.3z M241.7,23c3,0,3.6-2.9,3.6-5.5
		c0-2.6-0.6-5.5-3.6-5.5c-3,0-3.6,2.9-3.6,5.5C238.3,20.1,238.7,23,241.7,23z M262.4,13.6c0-1.1-1.1-1.7-2.2-1.7
		c-1.4,0-1.9,0.4-1.9,1.5c0,2.6,9.5,1.1,9.5,7.3c0,3.6-4.4,5.4-7.5,5.4c-3.9,0-7.2-1.5-7.3-5.3h4.6c0.1,1.2,1.2,2.1,2.8,2.1
		c1.4,0,2.3-0.6,2.3-1.8c0-1.4-2.3-1.9-3.3-2.1c-3.2-0.7-6.1-1.5-6.1-5.3c0-3.5,4.1-5,7.1-5c3.5,0,6.5,1.2,6.6,5h-4.6V13.6z
		 M278.8,13.6c0-1.1-1.1-1.7-2.2-1.7c-1.4,0-1.9,0.4-1.9,1.5c0,2.6,9.5,1.1,9.5,7.3c0,3.6-4.4,5.4-7.5,5.4c-3.9,0-7.2-1.5-7.3-5.3
		h4.6c0.1,1.2,1.2,2.1,2.8,2.1c1.4,0,2.3-0.6,2.3-1.8c0-1.4-2.3-1.9-3.3-2.1c-3.2-0.7-6.1-1.5-6.1-5.3c0-3.5,4.1-5,7.1-5
		c3.5,0,6.5,1.2,6.6,5h-4.6V13.6z M129.3,58.1V34.4h9c4.3-0.3,8.6,1.5,8.6,6.2c0,2.6-1.8,4.4-4.1,5.3c3,0.7,5.3,2.8,5.3,6.2
		c0,4.7-5.9,6.5-9.5,6.2h-9.1V58.1z M138.5,43.9c2.2,0,3.3-0.8,3.3-2.8c0-1.9-1.2-2.8-3.3-2.8h-4V44L138.5,43.9z M138.5,54.1
		c2.4,0,4-0.4,4-3.2c0-2.8-1.7-3.2-4-3.2h-4v6.4H138.5z M156.2,34.4v23.8h-5V34.4H156.2z M171.2,56.1c-1.1,1.5-2.6,2.5-5.1,2.5
		c-1.7,0-4.8-1.2-5.4-3.7c-0.3-1-0.3-2.1-0.3-2.6V41.4h5v10.1c0,1.8,0.6,3.9,2.9,3.9c1.5,0,2.9-1.4,2.9-3.9v-10h5v13.6
		c0,1,0.1,1.9,0.1,2.9h-5L171.2,56.1z M184.9,51.2c0,2.2,0.3,4.1,2.9,4.1c1.7,0,2.6-0.7,3-2.2h4.4c-0.4,4.1-3.6,5.4-7.5,5.4
		c-5.7,0-8-3.2-8-8.7c0-5,2.9-8.9,8-8.9c3,0,5.7,1.1,7.1,4c0.4,1,0.7,1.9,0.8,2.9c0.1,1,0.1,2.1,0.1,3.2L184.9,51.2z M190.7,47.9
		c0-1.8-0.6-3.5-2.9-3.5c-2.2,0-2.8,1.7-2.9,3.5H190.7z M211.9,41.1c-0.1-2.4-1.5-3.6-4-3.6c-1.9,0-3.7,1-3.7,3
		c0,2.6,2.4,2.9,4.4,3.3c3.6,1,9,1.9,9,6.8c0,5.9-5.1,8-10.2,8c-5.4,0-9.3-2.1-9.1-8.2h5.3c-0.1,2.6,1.4,4.4,4,4.4
		c2.1,0,4.7-0.7,4.7-3.2c0-2.8-3.5-3-5.4-3.6c-3.3-0.8-7.9-2.4-7.9-6.6c0-5.4,5-7.9,10-7.9c4.6,0,8.2,2.5,8.2,7.3L211.9,41.1z
		 M221,58.1V34.4h5v9.3c1-1.5,2.6-2.5,5.1-2.5c1.7,0,4.8,1.2,5.4,3.6c0.3,1,0.3,2.1,0.3,2.6v10.8h-4.8v-10c0-1.8-0.6-3.7-2.9-3.7
		c-1.5,0-2.9,1.4-2.9,3.7v10H221z M246.3,34.4v4.3h-5.3v-4.3H246.3z M246,41.5v16.6h-5V41.5H246z M254.7,51.2c0,2.2,0.3,4.1,2.9,4.1
		c1.7,0,2.6-0.7,3-2.2h4.4c-0.4,4.1-3.6,5.4-7.5,5.4c-5.7,0-8-3.2-8-8.7c0-5,2.9-8.9,8-8.9c3,0,5.7,1.1,7.1,4c0.4,1,0.7,1.9,0.8,2.9
		c0.1,1,0.1,2.1,0.1,3.2L254.7,51.2z M260.4,47.9c0-1.8-0.6-3.5-2.9-3.5c-2.2,0-2.8,1.7-2.9,3.5H260.4z M273.6,34.4v23.8h-5V34.4
		H273.6z M289.3,34.4h5V55c0,1.1,0.1,2.2,0.1,3.3h-5c0-0.8-0.1-1.5-0.1-2.4c-1.1,1.9-2.9,2.9-5.1,2.9c-4.8,0-7.2-4.6-7.2-8.9
		c0-4.4,2.6-8.9,7.7-8.9c1.7,0,3.5,1,4.4,2.4L289.3,34.4z M285.7,55.4c2.6,0,3.6-3.2,3.6-5.5c0-2.2-0.8-5.5-3.6-5.5
		c-3.2,0-3.6,2.9-3.6,5.5C282.1,52.3,282.5,55.4,285.7,55.4z M286.6,25.8c-0.8,0-1.5-0.7-1.5-1.5c0-0.8,0.7-1.5,1.5-1.5
		c0.8,0,1.5,0.7,1.5,1.5C288.1,25.1,287.5,25.8,286.6,25.8z M286.6,22.3c-1,0-1.8,0.8-1.8,1.8c0,1,0.8,1.8,1.8,1.8s1.8-0.8,1.8-1.8
		C288.4,23.2,287.5,22.3,286.6,22.3z"/>
	<path class="st1" d="M286.6,24.1h-0.4v-0.7h0.6c0.3,0,0.6,0,0.6,0.3C287.2,24.1,286.8,24.1,286.6,24.1z M287.5,23.7
		c0-0.4-0.1-0.6-0.7-0.6h-1v2.1h0.3v-1h0.4l0.7,1h0.3l-0.6-1C287.2,24.3,287.5,24.1,287.5,23.7z M297.2,58c-0.8,0-1.5-0.7-1.5-1.5
		c0-0.8,0.7-1.5,1.5-1.5c0.8,0,1.5,0.7,1.5,1.5C298.7,57.3,298,58,297.2,58z M297.2,54.5c-1,0-1.8,0.8-1.8,1.8c0,1,0.8,1.8,1.8,1.8
		c1,0,1.8-0.8,1.8-1.8C299,55.4,298.2,54.5,297.2,54.5z"/>
	<path class="st1" d="M297.1,56.3h-0.4v-0.7h0.6c0.3,0,0.6,0,0.6,0.3C297.8,56.3,297.5,56.3,297.1,56.3z M298.2,55.9
		c0-0.4-0.1-0.6-0.7-0.6h-1v2.1h0.3v-1h0.4l0.6,1h0.3l-0.6-1C297.9,56.5,298.2,56.3,298.2,55.9z"/>
	<path class="st2" d="M54.1,52.1c-1.8,0-3.2,1.4-3.2,3.2c0,1.8,1.4,3.2,3.2,3.2c1.7,0,3.2-1.4,3.2-3.2
		C57.3,53.4,55.9,52.1,54.1,52.1z M54.1,57.9c-1.5,0-2.6-1.1-2.6-2.6s1.1-2.6,2.6-2.6s2.6,1.1,2.6,2.6S55.8,57.9,54.1,57.9z"/>
	<path class="st2" d="M55.8,54.4c0-0.7-0.3-1-1.2-1H53V57h0.4v-1.5h0.8l1,1.5h0.6l-1.1-1.5C55.3,55.4,55.8,55.1,55.8,54.4z M54.1,55
		h-0.7v-1.1h1c0.4,0,0.8,0,0.8,0.6C55.3,55.1,54.5,55,54.1,55z M29.2,34.1c-0.1,0-0.1,0-0.3,0.1l-5.3,8c1.7,0.7,3.5,1.1,5.4,1.1
		c1.9,0,3.7-0.4,5.4-1.1l-5.3-8C29.3,34.1,29.2,34.1,29.2,34.1z M24.1,27.4l-7.9-0.7c-0.3,1-0.4,2.1-0.4,3.2c0,3.3,1.2,6.4,3.2,8.7
		l5.5-10.5C24.8,27.9,24.6,27.6,24.1,27.4z"/>
	<path class="st2" d="M41.7,17.3V1.7h-25v15.6H1v25h15.6V58h25V42.4h15.6v-25H41.7z M29.2,14.4c6.2,0,11.6,3.6,14,9H32.1
		c-1.5,0-2.2-1-2.4-1.7c0-0.8,0.1-1.1,0.8-2.1c0.8-1.1,0.3-3-1.5-3.2c-1.8,0-2.4,2.1-1.5,3.2c0.7,1,0.8,1.2,0.8,2.1
		c0,0.7-0.7,1.7-2.4,1.7H15C17.6,18.2,23,14.4,29.2,14.4z M13.7,29.9c0-1.9,0.4-3.7,1-5.4l10.4,1c1.9,0.3,2.2,2.2,1.7,3.3l-7.1,13.4
		C16.1,39.3,13.7,34.9,13.7,29.9z M37.6,42.9c-2.5,1.7-5.4,2.5-8.6,2.5s-6.1-1-8.6-2.5l7.6-11.2c0.6-0.8,1.4-0.7,1.9,0L37.6,42.9z
		 M38.8,42.1l-7.1-13.3c-0.6-1.1-0.3-3,1.7-3.3l10.4-1c0.7,1.7,1,3.6,1,5.4C44.7,34.9,42.3,39.3,38.8,42.1z"/>
	<path class="st2" d="M39.3,21.2c-1.7-1.9-3.9-3.5-6.4-4.1c0.8,1.2,0.1,3-0.6,3.9c-0.1,0.1,0,0.3,0,0.3H39.3z M34.3,27.4
		c-0.6,0-0.6,0.3-0.4,0.6l5.5,10.5c1.9-2.4,3.2-5.4,3.2-8.7c0-1.1-0.1-2.2-0.4-3.2L34.3,27.4z M25.5,17.2c-2.5,0.7-4.7,2.2-6.4,4.1
		H26c0.1,0,0.1-0.1,0-0.3C25.3,20.1,24.6,18.5,25.5,17.2z"/>
	<path class="st2" d="M107.6,1.7c-6.1,3-12.2,4.7-19.2,4.7c-7.1,0-13.1-1.7-19.2-4.7c-4,7.9-4.6,20.6-1.1,31.3
		c3.3,10.2,9.8,19.6,20.3,25.4c10.6-5.8,17-15.2,20.3-25.4C112.3,22.3,111.6,9.6,107.6,1.7z M104.9,31.7c-3,8.7-7.6,16.5-16.3,21.8
		c-8.7-5.4-13.4-13.1-16.3-21.8c-2.6-7.7-3.3-16.9-0.4-23.9c4.4,1.5,6.9,1.9,9.3,2.4c2.2,0.4,4.1,0.6,7.5,0.6c3.2,0,5.3-0.3,7.5-0.6
		c2.4-0.4,5-0.8,9.3-2.4C108,14.9,107.5,24,104.9,31.7z"/>
	<path class="st2" d="M96,12.1c-2.5,0.3-5.1,0.6-7.6,0.6c-2.5,0-5-0.3-7.6-0.6c-2.5-0.4-5-1-7.6-1.7c-1.8,5.3-1.5,11.9,0,17.7
		c2.6,11.1,9.4,19.5,15.2,23.2c5.9-3.7,12.6-12.2,15.2-23.2c1.4-5.9,1.8-12.4,0-17.7C101,11.1,98.6,11.8,96,12.1z M87,46.2
		c-0.1,0.6,0.1,0.8,0.1,1.1c-0.1,0.4-0.4,0.3-0.6,0c-0.3-0.4-0.4-0.7-0.4-1.4c-0.1-1.1,0.4-1.5,0.7-1.8c0.3-0.3,0.6-0.4,0.6-0.4
		l0.1,1.8C87.3,45.6,87,45.7,87,46.2z M89.4,48c0,0.3-0.1,0.6-0.7,0.6c-0.4,0-0.7-0.1-0.7-0.7c-0.1-2.2-0.1-6.2-0.1-6.2
		s0.6,0.1,1,0.4c0.1,0,0.4,0.3,0.7,0.6c0,0.1,0.1,0.1,0.1,0.3C89.5,44.5,89.4,47.4,89.4,48z M91.2,43.9c-0.6,0.4-1.1,0.6-1.1,0.6
		v-1.7c0,0,0.1-0.1,0.1-0.4c-0.1-0.3-1.2-1.1-1.8-1.4c-0.7-0.3-1.5-0.6-2.1-0.7c-1.4-0.6-1.9-1.8-1.4-3.2c0.1-0.6,0.8-0.8,1.1-1
		c0.3-0.1,0.8-0.3,0.8-0.3l0.1,1.9c0,0-0.1,0-0.3,0.3c-0.1,0.3,0.1,0.6,0.3,0.6c1,0.4,2.2,1,3.2,1.5c1.2,0.7,1.7,1.2,1.7,2.2
		C92,43.1,91.6,43.6,91.2,43.9z M87.7,34.9c1,0.1,1.2,0.1,2.1,0.3l-0.1,3.9l-0.8-0.4L88,38.2L87.7,34.9z M93.2,35.7
		c-0.1,0.7-0.6,1.2-1.2,1.7c-0.7,0.4-1.5,0.4-1.5,0.4v-2.4c0,0,0.1,0,0.3-0.1c0.1-0.1,0.1-0.3,0.1-0.4c0-0.1-0.1-0.3-0.3-0.4
		c-0.3-0.1-0.6-0.1-0.7-0.1l-3.3-0.4c-1.9-0.3-3.5-1.5-3.3-3.5c0.1-1.2,1.4-1.7,2.4-2.1l0.7,1.4c0.1,0.6,0.3,0.8,0.3,0.8
		s-0.4,0.1-0.4,0.4c0,0.3,0.4,0.4,0.6,0.4c1.4,0.1,3.3,0.4,4.3,0.8c0.7,0.3,1.2,0.6,1.7,1.1C93.2,34.4,93.4,35,93.2,35.7z
		 M86.9,26.7c0,0,0.4,0,1.7,0.1c0.8,0,1.5,0.3,1.5,0.3l-0.1,4.1c-1-0.1-1.5-0.3-2.4-0.4c-0.3-1.5-0.7-2.1-1.2-3.2
		c-0.1-0.3,0-0.4,0-0.4C86.5,27.2,87,27,87,27L86.9,26.7z M90.6,30.9c0,0,0.1-1.9,0.1-2.9c0.6-0.1,0.7-0.7,0.4-1.1
		c-0.1-0.3-0.6-0.4-0.7-0.4c-1.1-0.3-2.1-0.3-3.2-0.4c-1-0.1-1.8-0.3-2.6-0.4c-1.8-0.4-3.5-1.4-4.3-3c-1-2.1-0.1-4.7,1.9-5.7
		c1.5-0.8,3.2-0.7,4.7,0c0.6,0.1,0.8,0.7,1.1,1.1c0.1,0.1,0.4,0.3,0.6,0.6c0.1,0.1-0.1,0.1-0.1,0.1c-0.3,0.1-1.5,0.1-1.8,0h-1.7
		c0.4,0.3,1,0.6,1.5,0.8c0.3,0.1,0.6,0.1,0.8,0.3c0.1,0,0.4,0.1,0.4,0.3c0,0.1-0.3,0.1-0.6,0.3c-0.4,0.1-1,0.1-1.5,0
		c-0.8-0.1-1.2-0.7-1.8-0.4c-0.4,0.3-0.4,0.7-0.3,1.2c0.1,0.8,1,1.1,1.7,1.4c2.4,0.8,5,0.3,7.2,1.5c0.8,0.4,1.9,1.4,2.1,2.4
		C95.3,30.3,90.6,30.9,90.6,30.9z M94.8,18c-0.1,0.4-0.3,0.4-0.6,0.7c-0.6,0.6-1.4,1.1-2.2,1.8c-0.6,0.4-1,0.7-1.4,1.4
		c-0.1,0.1-0.3,0.4-0.3,0.4c-1.4-0.3-2.6-0.3-3.7-0.6v-1.1c0,0,1.2,0,1.4-0.8c0,0,0-0.3-0.1-0.4c-0.1-0.1-0.6-0.3-0.7-0.3
		c1,0.1,1.9,0.6,2.9,1c0-0.1-0.1-0.6-0.1-0.6c-0.1-0.1-0.3-0.3-0.7-0.4c-0.6-0.1-2.1-0.3-2.1-0.3h1.2c0.3,0,0.7-0.1,0.7-0.3
		c0.1-0.1,0-0.4-0.3-0.7l-0.4-0.4c-0.1-0.3-0.4-0.6-0.6-0.8c-0.3-0.4-1.4-0.8-1.4-0.8s-0.1-0.7,0.1-1c0.1-0.3,0.7-0.3,0.8-0.1
		c0.7,0.4,1.7,0.8,2.6,1.1c0.3,0.1,0.3,0.1,0.3,0.6c0.1,0.7-0.1,1.7,0,2.1c0,0.1,0.3,0.1,0.3,0.1c1-0.6,1.5-1.4,2.5-1.8
		C93.8,16.5,95,17.1,94.8,18z M107.9,52.2c-1.7,0-3,1.4-3,3c0,1.7,1.4,3,3,3c1.7,0,3-1.4,3-3C110.9,53.6,109.6,52.2,107.9,52.2z
		 M107.9,57.9c-1.5,0-2.6-1.1-2.6-2.6c0-1.5,1.1-2.6,2.6-2.6c1.5,0,2.6,1.1,2.6,2.6C110.5,56.8,109.4,57.9,107.9,57.9z"/>
	<path class="st2" d="M109.6,54.4c0-0.7-0.3-1-1.2-1h-1.5V57h0.4v-1.5h0.7l1,1.5h0.6l-1.1-1.5C109,55.4,109.6,55.1,109.6,54.4z
		 M107.9,55.1h-0.7V54h1c0.4,0,0.8,0,0.8,0.6C109,55.1,108.3,55.1,107.9,55.1z M85.5,17.1c0.3,0.3,0.3,0.6,0.7,0.6
		c0.3,0,0.4-0.1,0.6-0.3H87c-0.4-0.4-1.4-0.4-2.1-0.6C85.2,17.1,85.4,16.9,85.5,17.1z"/>
</g>
</svg>
