<?xml version="1.0" encoding="utf-8"?>
<!-- Generator: Adobe Illustrator 27.1.1, SVG Export Plug-In . SVG Version: 6.00 Build 0)  -->
<svg version="1.1" id="Layer_1" xmlns="http://www.w3.org/2000/svg" xmlns:xlink="http://www.w3.org/1999/xlink" x="0px" y="0px"
	 viewBox="0 0 300 56" style="enable-background:new 0 0 300 56;" xml:space="preserve">
<style type="text/css">
	.st0{fill:#7D3F98;}
</style>
<g>
	<path class="st0" d="M273.87,41.95c0-3.65,0.46-8.91,0.46-15.04c0-11.39-4.9-15.63-18.22-15.63c-6.43,0-12.1,0.88-15.62,2.34
		l0.46,9.06c3.06-1.61,7.5-3.07,11.79-3.07c6.13,0,7.81,2.34,7.81,8.03v0.88c-0.46,0-1.53,0-1.99,0c-15.01,0-22.05,4.38-22.05,12.42
		c0,8.33,4.29,13.15,16.69,13.15c6.59,0,12.87-0.88,21.29-0.88C273.87,50.13,273.87,45.31,273.87,41.95z M256.41,46.33
		c-4.59,0-6.59-1.46-6.59-5.11c0-3.51,2.45-5.55,8.73-5.55c0.61,0,1.22,0,1.84,0c0,3.36-0.15,7.45,0.15,10.22
		C259.47,46.18,257.94,46.33,256.41,46.33z M140.62,45.89c-7.5,0-11.49-3.65-11.49-9.49v-0.29c1.38,0,3.98,0.15,5.51,0.15
		c13.32,0,20.06-3.94,20.06-12.56c0-7.45-5.67-12.27-17.77-12.27c-14.86,0-20.68,6.28-22.05,17.53c-2.14-0.15-4.59-0.15-7.81-0.15
		c0-0.58,0-1.17,0-1.9c0-11.39-4.9-15.63-18.23-15.63c-6.43,0-12.1,0.88-15.62,2.34l0.46,9.06c3.06-1.61,7.5-3.07,11.79-3.07
		c6.13,0,7.96,2.34,7.96,8.03v0.88c-0.46,0-1.53,0-1.99,0c-15.01,0-22.05,4.38-22.05,12.42c0,8.33,4.29,13.15,16.69,13.15
		c6.59,0,12.87-0.88,21.29-0.88c-0.61-3.36-0.61-8.18-0.61-11.39c0-1.75,0.15-3.8,0.15-6.13c3.52,0,6.13,0.15,7.81,0.15
		c1.23,13.44,8.58,18.26,23.59,18.26c5.51,0,11.18-0.88,14.24-2.19l-0.46-9.06C149.2,44.58,145.06,45.89,140.62,45.89z M89.31,46.33
		c-4.59,0-6.59-1.46-6.59-5.11c0-3.51,2.45-5.55,8.73-5.55c0.61,0,1.23,0,1.84,0c0,3.36-0.15,7.45,0.15,10.22
		C92.38,46.18,90.69,46.33,89.31,46.33z M128.98,28.95c0-5.7,1.84-9.93,7.35-9.93c3.06,0,5.21,1.61,5.21,4.38
		c0,3.94-2.76,5.84-8.58,5.84c-1.38,0-2.91,0-3.98-0.15V28.95z M230.98,34.35c0-3.51,0-8.03,0-8.03c0-10.37-4.75-14.9-18.22-14.9
		c-7.51,0-12.87,1.31-21.29,1.31c0.46,7.3,0.46,16.21,0.46,21.76c0,5.7-0.15,15.77-0.46,18.99h14.4
		c-0.31-3.21-0.61-12.71-0.61-18.99c0-3.65,0-8.03,0.15-13.88c1.38-0.44,3.22-0.88,5.21-0.88c5.06,0,6.74,2.19,6.74,8.47
		c0,0,0,3.94,0,6.13c0,5.7-0.15,15.77-0.46,18.99h14.4C231.29,50.13,230.98,40.78,230.98,34.35z M185.65,44.29l0.61,9.06
		c-1.07,0.29-4.59,0.88-9.19,0.88c-9.5,0-14.55-3.8-14.55-13.15c0-7.3,0.15-15.34,0.15-19.72h-4.9c0.15-2.04,0-4.82,0-6.86
		c7.35-1.17,9.65-5.11,10.87-12.85h8.12c-0.31,3.21-0.46,7.74-0.61,10.95h8.58v8.76H176v15.92c0,6.13,1.38,7.89,5.67,7.89
		C183.2,45.16,184.88,44.87,185.65,44.29z M21.77,7.62c1.84,0,3.52,0.58,4.9,1.9l7.96,7.6l7.96-7.6c1.38-1.31,3.06-1.9,4.9-1.9
		c1.68,0,3.52,0.58,4.9,1.9l9.8,9.35c2.76,2.63,2.76,6.72,0,9.35L34.64,54.36L7.07,28.07c-2.76-2.63-2.76-6.72,0-9.35l9.8-9.35
		C18.25,8.21,19.93,7.62,21.77,7.62z M276.62,11.42h7.5v1.46h-2.91v7.3h-1.84v-7.3h-2.91L276.62,11.42z M285.81,11.42h2.45l1.22,3.8
		c0.31,1.17,0.92,3.36,0.92,3.36s0.61-2.19,0.92-3.36l1.22-3.8H295v8.76h-1.68v-3.21c0-1.61,0.15-3.94,0.15-3.94
		s-0.61,2.04-1.07,3.8l-1.07,3.36h-1.69l-1.07-3.36c-0.61-1.75-1.07-3.8-1.07-3.8s0.15,2.48,0.15,3.94v3.21h-1.68v-8.76H285.81z"/>
</g>
</svg>
