<?xml version="1.0" encoding="utf-8"?>
<!-- Generator: Adobe Illustrator 27.1.1, SVG Export Plug-In . SVG Version: 6.00 Build 0)  -->
<svg version="1.1" id="Layer_1" xmlns="http://www.w3.org/2000/svg" xmlns:xlink="http://www.w3.org/1999/xlink" x="0px" y="0px"
	 viewBox="0 0 376 124" style="enable-background:new 0 0 376 124;" xml:space="preserve">
<style type="text/css">
	.st0{fill:#0982C6;}
	.st1{fill:#F8971F;}
	.st2{fill:#56B948;}
</style>
<g>
	<path class="st0" d="M93.1,53.2c0,0.9-1,2-2.3,3.6c-4.4,5.4-14.3,15.1-14.3,39c0,12.4,2,17.5,2,23.3c0,2.6-0.5,4-1.9,4
		c-3.1,0-8.4-13.1-8.4-28.7c0-32.8,20.7-41.9,23.9-41.9C92.8,52.4,93.1,52.8,93.1,53.2 M41,52.4c3.2,0,23.9,9.1,23.9,41.9
		c0,15.7-5.3,28.7-8.4,28.7c-1.4,0-1.9-1.4-1.9-4c0-5.8,2-10.9,2-23.3c0-23.9-9.8-33.6-14.3-39c-1.3-1.6-2.3-2.7-2.3-3.6
		C40.1,52.8,40.3,52.4,41,52.4z"/>
	<path class="st1" d="M59,59c0,4.3,3.4,7.8,7.6,7.8c4.2,0,7.6-3.5,7.6-7.8c0-4.3-3.4-7.8-7.6-7.8C62.4,51.3,59,54.7,59,59"/>
	<path class="st2" d="M131.2,107.7c-10.7-6.6-27.1-13.5-50.8-15.7c0,0.3-0.2,2-0.2,3.7c0,0.8,0.1,1.8,0.2,2
		c23.1,1.5,39.6,6.4,50.8,10.4c0.2,0.1,0.4,0.2,0.6,0.2c0.1,0,0.2-0.1,0.2-0.2C131.8,108,131.6,108,131.2,107.7 M78.9,19.3
		c-1.8-1.6-3.3-4.1-2.2-7.9c1.1-3.6,3.9-6.6,6.9-7.4c2,2.3,2.6,6.4,1.5,10C83.9,17.8,81.3,19,78.9,19.3z M96.3,33.8
		c-0.6-2.3-0.6-5,2.3-7.5c2.8-2.4,6.6-3.3,9.4-2.4c0.4,2.9-1.2,6.5-3.9,8.9C101.2,35.2,98.4,34.8,96.3,33.8z M96.9,55.7
		c0.7-2.2,2.3-4.4,6-4.8c3.6-0.4,7.2,0.9,9,3.2c-1.3,2.6-4.5,4.6-8.1,5C100.1,59.5,98,57.7,96.9,55.7z M90.5,63.7
		c1.2-1.7,3.1-3.1,6.4-2.5c3.1,0.6,5.8,2.7,6.8,5.1c-1.8,1.9-5.1,2.8-8.2,2.2C92.3,67.7,91,65.6,90.5,63.7z M71.5,42.9
		c-2.2-2-4-4.9-2.6-9.5c1.3-4.4,4.7-7.9,8.3-8.9c2.4,2.8,3.2,7.6,1.8,12C77.6,41.1,74.5,42.6,71.5,42.9z M79.8,47.8
		c-0.7-2.5-0.6-5.7,2.6-8.5c3.1-2.7,7.4-3.7,10.6-2.7c0.5,3.3-1.3,7.3-4.4,10C85.3,49.3,82.2,48.9,79.8,47.8z M85.4,30.1
		c-1.6-2.5-2.6-5.9,0.1-10c2.5-3.9,6.8-6.5,10.6-6.4c1.6,3.4,1,8.4-1.6,12.3C91.8,30,88.3,30.5,85.4,30.1z M96.6,45.4
		c0-2.8,1-5.9,5.1-7.8c3.9-1.8,8.6-1.6,11.5,0.3c-0.5,3.5-3.4,7.1-7.4,8.8C101.7,48.6,98.7,47.3,96.6,45.4z M60.5,13.5
		c0-5.3,2.5-10.3,6.1-12.6c3.6,2.3,6.1,7.3,6.1,12.6c0,5.5-3,8.2-6.1,9.6C63.5,21.7,60.5,19,60.5,13.5z M1.4,108.2
		c0,0.1,0.1,0.2,0.2,0.2c0.1,0,0.3-0.1,0.5-0.2c11.2-4,27.6-8.9,50.8-10.4c0-0.2,0.2-1.2,0.2-2c0-1.7-0.2-3.4-0.2-3.7
		c-23.7,2.2-40.1,9-50.8,15.7C1.6,108,1.4,108,1.4,108.2z M48.1,14c-1.1-3.6-0.5-7.7,1.5-10c3,0.8,5.8,3.8,6.9,7.4
		c1.2,3.8-0.3,6.3-2.2,7.9C51.9,19,49.3,17.8,48.1,14z M29.1,32.7c-2.8-2.4-4.4-5.9-3.9-8.9c2.8-0.9,6.6,0.1,9.4,2.4
		c2.9,2.5,3,5.3,2.3,7.5C34.7,34.8,32,35.2,29.1,32.7z M29.4,59.1c-3.6-0.4-6.8-2.4-8.1-5c1.8-2.3,5.4-3.6,9-3.2
		c3.7,0.4,5.3,2.6,6,4.8C35.1,57.7,33.1,59.5,29.4,59.1z M37.6,68.4c-3.1,0.6-6.4-0.3-8.2-2.2c0.9-2.4,3.7-4.5,6.8-5.1
		c3.3-0.6,5.2,0.8,6.4,2.5C42.1,65.6,40.9,67.7,37.6,68.4z M54.1,36.6c-1.3-4.4-0.6-9.2,1.8-12c3.6,1,6.9,4.5,8.3,8.9
		c1.4,4.6-0.4,7.5-2.6,9.5C58.7,42.6,55.6,41.1,54.1,36.6z M44.6,46.6c-3.1-2.7-4.9-6.7-4.4-10c3.2-1,7.4,0.1,10.6,2.7
		c3.3,2.8,3.3,5.9,2.6,8.5C50.9,48.9,47.8,49.3,44.6,46.6z M38.7,25.9c-2.5-3.9-3.1-8.8-1.6-12.3c3.8,0,8,2.5,10.6,6.4
		c2.7,4.1,1.7,7.5,0.1,10C44.8,30.5,41.3,30,38.7,25.9z M27.4,46.8c-3.9-1.8-6.9-5.4-7.4-8.8c2.9-1.9,7.6-2.1,11.5-0.3
		c4.1,1.9,5.1,5,5.1,7.8C34.5,47.3,31.5,48.6,27.4,46.8z"/>
	<path class="st0" d="M265.4,92.1V61.7c0-4.1-0.4-11.9-0.5-13.6h9.4l0.5,6.2h0.2c1.1-1.7,4.6-7.2,12.9-7.2c9.9,0,15.4,7.3,15.4,16.4
		v28.6h-10.5V65.6c0-5.6-3.1-9.8-8.5-9.8c-5.5,0-8.5,4.5-8.5,9.8v26.5H265.4 M204.1,48.2h-10.5v43.8h10.5V48.2z M353.6,92.1
		c-0.3-2.5-1.3-8.9-1.3-14.5V49.1c-1.6-0.4-7.6-2-14.4-2c-17.8,0-25.4,11.9-25.4,24.8c0,11.8,6,21.1,17.4,21.1
		c8.4,0,12.1-5.4,13.5-8.3h0.3c0.1,1.4,0.5,6,0.6,7.3H353.6z M341.8,70.3c0,10.1-3.9,14.3-9.6,14.3c-5.7,0-9-4.9-9-13.4
		c0-8.7,5-15.9,14.2-15.9c1.9,0,3.2,0.2,4.4,0.5V70.3z M183.1,81.4c-2.8,1.3-7.4,2.2-11.8,2.2c-12.1,0-20.9-8.6-20.9-21.8
		c0-13,8.8-21.8,20.9-21.8c6,0,10.3,1.5,11.8,2.2v-9.4c-2.6-1-6.9-2-12.9-2c-18.7,0-31.3,12.9-31.3,30.9c0,17,11.6,30.9,31.3,30.9
		c5.8,0,10.1-0.9,12.9-2V81.4z M243.5,86.8v3.3c0,9-5.5,12.4-12.4,12.4c-6.2,0-10.7-1.8-12.1-2.4v8.9c1.2,0.3,6.2,1.9,13.3,1.9
		c12.7,0,21.1-5.2,21.1-23.2V49.1c-1.6-0.4-7.6-2-14.4-2c-17.8,0-25.4,11.9-25.4,24.8c0,11.8,6,21.1,17.4,21.1
		c7.5,0,11.1-4.6,12.3-6.2H243.5z M243,70.3c0,10.1-3.9,14.3-9.6,14.3c-5.7,0-9-4.9-9-13.4c0-8.7,5-15.9,14.2-15.9
		c1.9,0,3.2,0.2,4.4,0.5V70.3z M192.3,36.8c0,3.5,2.9,6.4,6.5,6.4c3.6,0,6.5-2.8,6.5-6.4c0-3.5-2.9-6.4-6.5-6.4
		C195.2,30.4,192.3,33.3,192.3,36.8z"/>
	<path class="st0" d="M372.9,90.8c-1.1,1.1-2.5,1.7-4.1,1.7c-1.6,0-3-0.6-4.1-1.7c-1.1-1.1-1.7-2.5-1.7-4.1c0-1.6,0.6-3,1.7-4.1
		c1.1-1.1,2.5-1.7,4.1-1.7c1.6,0,3,0.6,4.1,1.7c1.1,1.1,1.7,2.5,1.7,4.1C374.6,88.3,374.1,89.6,372.9,90.8 M365.2,83.1
		c-1,1-1.5,2.2-1.5,3.6c0,1.4,0.5,2.6,1.5,3.6c1,1,2.2,1.5,3.6,1.5c1.4,0,2.6-0.5,3.5-1.5c1-1,1.5-2.2,1.5-3.6
		c0-1.4-0.5-2.6-1.5-3.6c-1-1-2.2-1.5-3.5-1.5C367.4,81.6,366.2,82.1,365.2,83.1z M368.7,83.4c0.8,0,1.4,0.1,1.8,0.2
		c0.7,0.3,1,0.8,1,1.6c0,0.6-0.2,1-0.6,1.3c-0.2,0.1-0.5,0.2-0.9,0.3c0.5,0.1,0.9,0.3,1.1,0.6c0.2,0.3,0.3,0.7,0.3,1v0.5
		c0,0.1,0,0.3,0,0.5c0,0.2,0,0.3,0.1,0.3l0,0.1h-1.1c0,0,0,0,0-0.1c0,0,0,0,0-0.1l0-0.2V89c0-0.7-0.2-1.2-0.6-1.5
		c-0.2-0.1-0.7-0.2-1.3-0.2h-0.9v2.5h-1.1v-6.4H368.7z M369.9,84.4c-0.3-0.2-0.7-0.2-1.4-0.2h-1v2.3h1c0.5,0,0.8,0,1.1-0.1
		c0.4-0.2,0.7-0.5,0.7-1C370.3,84.9,370.2,84.6,369.9,84.4z"/>
</g>
</svg>
