<svg width="140" height="44" viewBox="0 0 140 44" fill="none" xmlns="http://www.w3.org/2000/svg">
<g clip-path="url(#clip0_20_515)">
<path d="M7.03583 41.9156C8.46184 42.4049 9.95951 42.6526 11.4671 42.6487C18.1376 42.6487 22.781 37.812 22.781 28.6147V1.20917L25.3172 0V29.0908C25.3172 38.472 20.4805 43.9403 13.6309 43.9403C11.2821 43.9232 8.98962 43.2194 7.03583 41.9156ZM4.14136 39.1272C5.67816 39.6387 7.21732 39.9687 8.57263 39.9687C14.1801 39.9687 17.916 36.452 17.916 28.5016V3.29989L20.4074 2.12136V28.7255C20.4074 37.0436 16.1954 41.2934 10.3334 41.2934C8.16957 41.2934 5.97279 40.4872 4.14136 39.1272ZM2.38063 36.6405C3.57716 37.0324 4.82293 37.2538 6.08122 37.2981C10.4418 37.2981 13.117 34.9175 13.117 28.6524V5.42124L15.5707 4.24271V28.2847C15.5707 35.3206 12.3486 38.5073 7.73116 38.5073C5.78957 38.498 3.90661 37.841 2.38063 36.6405ZM10.8095 29.3124V6.37585L0 11.2479V29.8687C0 33.4231 2.23449 35.8038 5.53202 35.8038C8.82955 35.8038 10.8095 33.3783 10.8095 29.3124Z" fill="#002677"/>
<path d="M39.2332 6.33572V14.8871C39.2332 18.0456 41.1024 20.5111 44.6733 20.5111C47.7375 20.5111 50.0451 18.253 50.0451 14.8188V6.56907C50.0375 6.35063 50.0735 6.13287 50.1508 5.92843C50.2281 5.72399 50.3453 5.53696 50.4955 5.37819C50.6457 5.21941 50.826 5.09207 51.0259 5.00356C51.2257 4.91504 51.4411 4.86711 51.6597 4.86256L51.9802 4.84135V4.03052H46.6108V4.83899L46.9573 4.8602C47.1757 4.86506 47.3908 4.91322 47.5904 5.00187C47.79 5.09052 47.97 5.21791 48.1199 5.37665C48.2699 5.53539 48.3869 5.72232 48.4641 5.92661C48.5412 6.13089 48.5771 6.34847 48.5696 6.56671V14.5642C48.5696 17.1688 47.2095 18.7598 45.0882 18.7598C42.9668 18.7598 41.6775 17.0768 41.6775 14.543V6.33572C41.6775 5.43768 42.1607 4.92149 43.1766 4.8602L43.4995 4.83899V4.03052H37.39V4.83899L37.7365 4.8602C38.7265 4.93091 39.2332 5.42118 39.2332 6.33572Z" fill="#002677"/>
<path d="M46.486 24.5771L46.8301 24.6007C47.6834 24.6455 48.3292 24.992 48.3292 25.9607V30.986H42.2904V25.9607C42.2904 24.992 42.9363 24.669 43.7895 24.6007L44.1124 24.5771V23.771H38.0029V24.5771L38.3494 24.6007C39.2027 24.6455 39.8462 24.992 39.8462 25.9607V37.713C39.8462 38.6818 39.2027 39.0283 38.3494 39.073L38.0029 39.0966V39.9027H44.1124V39.0966L43.7895 39.073C42.9363 39.0047 42.2904 38.6818 42.2904 37.713V32.2305H48.3198V37.713C48.3198 38.6818 47.674 39.0283 46.8207 39.073L46.4766 39.0966V39.9027H52.5837V39.0966L52.2608 39.073C51.4099 39.0047 50.7641 38.6818 50.7641 37.713V25.9607C50.7641 24.992 51.4099 24.669 52.2608 24.6007L52.5837 24.5771V23.771H46.486V24.5771Z" fill="#002677"/>
<path d="M51.9591 8.75656V9.51789L52.4187 9.5391C53.1259 9.58625 53.5713 9.93273 53.5713 10.8991V18.001C53.5713 18.9673 53.0881 19.3138 52.3032 19.3586L51.9591 19.3822V20.1671H57.4204V19.3822L57.0975 19.3586C56.315 19.3138 55.8318 18.9673 55.8318 18.001V14.2297C55.8765 11.4625 57.0763 9.8031 58.4811 9.8031C59.5653 9.8031 60.2795 10.5409 60.2795 11.9692V18.001C60.2795 18.9673 59.794 19.3138 59.0114 19.3586L58.6649 19.3822V20.1671H64.1286V19.3822L63.8057 19.3586C63.0232 19.3138 62.5376 18.9673 62.5376 18.001V11.7076C62.5376 9.90916 61.4321 8.40771 59.2377 8.40771C57.6938 8.40771 56.355 9.33168 55.827 10.9675V8.45721L51.9591 8.75656Z" fill="#002677"/>
<path d="M83.4895 20.3981C85.8182 20.3981 87.1335 18.807 87.6638 17.0086L86.6715 16.7352C86.2001 17.9797 85.4034 18.9461 83.7912 18.9461C81.9244 18.9461 80.6563 17.1712 80.6563 14.3593H87.8241V13.6899C87.8241 10.7152 86.0728 8.31812 83.2608 8.31812C80.2414 8.31812 78.2356 11.2008 78.2356 14.3569C78.2356 17.513 80.1707 20.3981 83.4895 20.3981ZM83.2373 9.63335C84.5054 9.63335 85.3115 10.8119 85.4034 13.2279H80.7011C80.9321 10.9934 81.8537 9.63335 83.2373 9.63335Z" fill="#002677"/>
<path d="M72.1497 17.5836C72.1497 19.382 73.2339 20.3979 74.9616 20.3979C76.5762 20.3979 77.6369 19.2194 78.1201 17.5388L77.2904 17.3031C76.9675 18.2719 76.4372 18.8706 75.6994 18.8706C74.7307 18.8706 74.4077 18.1634 74.4077 17.3267V9.86187H77.5662V8.66448H74.4077V5.11475H73.2575C72.8191 7.78765 71.4591 8.7564 70.0283 9.05575V9.86187H72.1497V17.5836Z" fill="#002677"/>
<path d="M67.3106 6.59985C67.7038 6.58437 68.0757 6.4173 68.3484 6.13366C68.6211 5.85002 68.7734 5.47183 68.7734 5.07837C68.7734 4.6849 68.6211 4.30671 68.3484 4.02307C68.0757 3.73943 67.7038 3.57236 67.3106 3.55688C66.9163 3.56062 66.5396 3.72051 66.2631 4.00151C65.9865 4.28251 65.8326 4.6617 65.8351 5.05598C65.8294 5.25453 65.8632 5.45222 65.9346 5.63761C66.0059 5.823 66.1132 5.9924 66.2505 6.136C66.3877 6.2796 66.5521 6.39453 66.7341 6.47415C66.916 6.55378 67.112 6.5965 67.3106 6.59985Z" fill="#002677"/>
<path d="M66.2499 10.8989V18.0008C66.2499 18.9672 65.7643 19.3137 64.9818 19.3584L64.6353 19.382V20.1669H70.0989V19.382L69.776 19.3584C68.9911 19.3137 68.5079 18.9672 68.5079 18.0008V8.45703L64.5198 8.75638V9.51771L65.0973 9.53892C65.8114 9.56249 66.2499 9.93255 66.2499 10.8989Z" fill="#002677"/>
<path d="M93.7026 20.398C95.2229 20.398 96.3991 19.6131 96.9058 18.2766V20.1623H100.755V19.3821L100.432 19.3585C99.6495 19.3137 99.1639 18.9672 99.1639 18.0008V3.7312L95.2465 4.07769V4.83902L95.7532 4.86023C96.4604 4.8838 96.9058 5.25386 96.9058 6.22026V10.371C96.3991 9.07937 95.2229 8.31804 93.7026 8.31804C90.6808 8.31804 88.9767 11.2007 88.9767 14.3568C88.9767 17.5129 90.6808 20.398 93.7026 20.398ZM94.0939 9.63328C95.798 9.63328 96.9058 11.4765 96.9058 14.3474C96.9058 17.2183 95.798 19.0615 94.0939 19.0615C92.4793 19.0615 91.4186 17.2419 91.4186 14.3474C91.4186 11.4529 92.4793 9.63328 94.0939 9.63328Z" fill="#002677"/>
<path d="M128.014 28.1033C126.678 28.1033 125.525 28.9801 125.019 30.5475V28.1905L121.153 28.4969V29.2559L121.613 29.2794C122.32 29.3266 122.765 29.6707 122.765 30.6395V37.7389C122.765 38.7077 122.294 39.0518 121.497 39.099L121.153 39.1272V39.9098H126.614V39.1272L126.291 39.1037C125.509 39.0565 125.026 38.7124 125.026 37.7436V33.8663C125.07 30.986 126.315 29.1875 127.838 29.1875C127.979 29.176 128.12 29.197 128.252 29.2489C128.383 29.3008 128.501 29.3822 128.597 29.4869C128.399 29.5899 128.234 29.7459 128.121 29.9374C128.007 30.129 127.949 30.3484 127.953 30.5711C127.955 30.8944 128.084 31.2038 128.313 31.4324C128.541 31.661 128.851 31.7902 129.174 31.7921C129.843 31.7921 130.395 31.2382 130.395 30.4556C130.388 29.0037 129.306 28.1033 128.014 28.1033Z" fill="#002677"/>
<path d="M135.437 28.0491C132.417 28.0491 130.411 30.9294 130.411 34.0879C130.411 37.2463 132.347 40.1266 135.668 40.1266C137.994 40.1266 139.309 38.5356 139.84 36.7396L138.847 36.4614C138.376 37.7059 137.579 38.6747 135.967 38.6747C134.1 38.6747 132.832 36.8998 132.832 34.0879H140.009V33.4185C140.009 30.4556 138.249 28.0491 135.437 28.0491ZM132.877 32.9588C133.113 30.722 134.03 29.362 135.413 29.362C136.681 29.362 137.487 30.5405 137.579 32.9588H132.877Z" fill="#002677"/>
<path d="M119.185 37.9934V31.9758C119.185 29.5103 117.641 28.0583 115.036 28.0583C112.802 28.0583 110.82 29.5339 110.82 31.2168C110.814 31.5406 110.937 31.8535 111.161 32.0867C111.386 32.3199 111.694 32.4542 112.018 32.4602C112.342 32.4661 112.655 32.3432 112.888 32.1184C113.121 31.8936 113.256 31.5854 113.262 31.2616C113.263 31.0424 113.205 30.8268 113.096 30.6368C112.987 30.4468 112.829 30.2891 112.639 30.1797C113.054 29.6022 113.792 29.2557 114.69 29.2557C116.104 29.2557 116.95 30.3164 116.95 32.0842V32.6145L113.537 34.0288C111.256 34.9716 110.473 35.8037 110.473 37.3004C110.473 39.0305 111.718 40.1289 113.676 40.1289C114.383 40.1264 115.073 39.9091 115.653 39.5058C116.234 39.1025 116.678 38.5323 116.927 37.8708V38.2173C116.927 39.3958 117.756 40.1029 119.14 40.1029C119.632 40.1089 120.122 40.0389 120.592 39.8955V39.1271C119.623 39.2379 119.185 38.8678 119.185 37.9934ZM116.927 35.3888C116.811 37.4159 115.798 38.7759 114.391 38.7759C113.377 38.7759 112.741 38.0853 112.741 37.0246C112.741 36.0818 113.247 35.3417 114.216 34.9268L116.95 33.7059L116.927 35.3888Z" fill="#002677"/>
<path d="M86.8224 37.0482C86.4995 38.0146 85.9715 38.6157 85.2337 38.6157C84.265 38.6157 83.942 37.9085 83.942 37.0718V29.6023H87.1005V28.4025H83.942V24.8528H82.7894C82.351 27.528 80.991 28.4968 79.5626 28.7961V29.6023H81.684V37.324C81.684 39.1224 82.7659 40.136 84.496 40.136C86.1082 40.136 87.1689 38.9574 87.6521 37.2769L86.8224 37.0482Z" fill="#002677"/>
<path d="M72.2085 37.9934V31.9758C72.2085 29.5103 70.6646 28.0583 68.0601 28.0583C65.8256 28.0583 63.8433 29.5339 63.8433 31.2168C63.8374 31.5406 63.9603 31.8535 64.1851 32.0867C64.4099 32.3199 64.7181 32.4542 65.0419 32.4602C65.3657 32.4661 65.6786 32.3432 65.9118 32.1184C66.145 31.8936 66.2793 31.5854 66.2852 31.2616C66.2855 31.0425 66.2281 30.8273 66.1189 30.6374C66.0097 30.4475 65.8524 30.2896 65.663 30.1797C66.0778 29.6022 66.8156 29.2557 67.7136 29.2557C69.1278 29.2557 69.974 30.3164 69.974 32.0842V32.6145L66.561 34.0288C64.2794 34.9716 63.4968 35.8037 63.4968 37.3004C63.4968 39.0305 64.7414 40.1289 66.7001 40.1289C67.4069 40.1264 68.0963 39.9091 68.6768 39.5058C69.2573 39.1025 69.7015 38.5323 69.9505 37.8708V38.2173C69.9505 39.3958 70.7801 40.1029 72.1637 40.1029C72.6555 40.1089 73.1453 40.0389 73.6157 39.8955V39.1271C72.6469 39.2379 72.2085 38.8678 72.2085 37.9934ZM69.9505 35.3888C69.835 37.4159 68.8214 38.7759 67.4143 38.7759C66.4007 38.7759 65.7643 38.0853 65.7643 37.0246C65.7643 36.0818 66.2711 35.3417 67.2398 34.9268L69.974 33.7059L69.9505 35.3888Z" fill="#002677"/>
<path d="M105.886 38.684C104.019 38.684 102.751 36.9091 102.751 34.0971C102.751 31.238 103.996 29.4184 105.863 29.4184C106.692 29.4184 107.338 29.6942 107.729 30.2009C107.554 30.3167 107.409 30.474 107.309 30.6591C107.208 30.8441 107.155 31.0511 107.154 31.2616C107.156 31.5848 107.285 31.8943 107.514 32.1229C107.743 32.3515 108.052 32.4807 108.375 32.4826C109.066 32.4826 109.596 31.931 109.596 31.1461C109.596 29.7625 108.215 28.0583 105.747 28.0583C102.313 28.0583 100.326 30.9387 100.326 34.0971C100.326 37.2556 102.261 40.1359 105.582 40.1359C107.864 40.1359 109.153 38.6156 109.662 36.8855L108.67 36.5862C108.236 37.7624 107.454 38.684 105.886 38.684Z" fill="#002677"/>
<path d="M78.0423 37.739V23.4717L74.1226 23.8064V24.5677L74.6293 24.5913C75.3364 24.6149 75.7819 24.9826 75.7819 25.9513V37.7366C75.7819 38.7054 75.2987 39.0495 74.5138 39.0966L74.1697 39.1202V39.9028H79.631V39.1273L79.3081 39.1037C78.5255 39.0519 78.0423 38.7077 78.0423 37.739Z" fill="#002677"/>
<path d="M98.2329 37.739V31.4456C98.2329 29.6495 97.1274 28.1457 94.933 28.1457C93.3867 28.1457 92.0503 29.0673 91.5199 30.7031V23.4717L87.6072 23.8064V24.5677L88.1139 24.5913C88.8211 24.6149 89.2666 24.9826 89.2666 25.9513V37.7366C89.2666 38.7054 88.7834 39.0495 87.9985 39.0966L87.652 39.1202V39.9028H93.1157V39.1273L92.7927 39.1037C92.0102 39.0566 91.5246 38.7124 91.5246 37.7437V33.9724C91.5718 31.2076 92.7692 29.5482 94.1763 29.5482C95.2606 29.5482 95.9748 30.2859 95.9748 31.7143V37.7531C95.9748 38.7219 95.4892 39.066 94.7067 39.1131L94.3602 39.1367V39.9193H99.8239V39.1273L99.501 39.1037C98.7161 39.0519 98.2329 38.7077 98.2329 37.739Z" fill="#002677"/>
<path d="M58.0568 28.0491C55.0374 28.0491 53.0339 30.9388 53.0339 34.0973C53.0339 37.2557 54.9714 40.1361 58.2902 40.1361C60.619 40.1361 61.9318 38.5451 62.4622 36.749L61.4699 36.4708C61.0102 37.7154 60.2018 38.6841 58.5895 38.6841C56.7227 38.6841 55.4546 36.9093 55.4546 34.0973H62.6225V33.4279C62.6201 30.4556 60.8688 28.0491 58.0568 28.0491ZM55.4994 32.9588C55.7351 30.722 56.6497 29.362 58.0333 29.362C59.3014 29.362 60.1075 30.5405 60.1994 32.9588H55.4994Z" fill="#002677"/>
</g>
<defs>
<clipPath id="clip0_20_515">
<rect width="140" height="43.9309" fill="white"/>
</clipPath>
</defs>
</svg>
